<svg width="24" height="24" viewBox="0 0 24 24" fill="none" xmlns="http://www.w3.org/2000/svg">
<path d="M6.16683 10.8333C6.81116 10.8333 7.3335 10.311 7.3335 9.66667C7.3335 9.02233 6.81116 8.5 6.16683 8.5C5.5225 8.5 5.00016 9.02233 5.00016 9.66667C5.00016 10.311 5.5225 10.8333 6.16683 10.8333Z" fill="white"/>
<path d="M13.1668 9.66667C13.1668 10.311 12.6445 10.8333 12.0002 10.8333C11.3558 10.8333 10.8335 10.311 10.8335 9.66667C10.8335 9.02233 11.3558 8.5 12.0002 8.5C12.6445 8.5 13.1668 9.02233 13.1668 9.66667Z" fill="white"/>
<path d="M17.8335 10.8333C18.4778 10.8333 19.0002 10.311 19.0002 9.66667C19.0002 9.02233 18.4778 8.5 17.8335 8.5C17.1892 8.5 16.6668 9.02233 16.6668 9.66667C16.6668 10.311 17.1892 10.8333 17.8335 10.8333Z" fill="white"/>
<path d="M7.3335 13.75C7.3335 14.3943 6.81116 14.9167 6.16683 14.9167C5.5225 14.9167 5.00016 14.3943 5.00016 13.75C5.00016 13.1057 5.5225 12.5833 6.16683 12.5833C6.81116 12.5833 7.3335 13.1057 7.3335 13.75Z" fill="white"/>
<path d="M12.0002 14.9167C12.6445 14.9167 13.1668 14.3943 13.1668 13.75C13.1668 13.1057 12.6445 12.5833 12.0002 12.5833C11.3558 12.5833 10.8335 13.1057 10.8335 13.75C10.8335 14.3943 11.3558 14.9167 12.0002 14.9167Z" fill="white"/>
<path d="M19.0002 13.75C19.0002 14.3943 18.4778 14.9167 17.8335 14.9167C17.1892 14.9167 16.6668 14.3943 16.6668 13.75C16.6668 13.1057 17.1892 12.5833 17.8335 12.5833C18.4778 12.5833 19.0002 13.1057 19.0002 13.75Z" fill="white"/>
<path d="M6.16683 19C6.81116 19 7.3335 18.4777 7.3335 17.8333C7.3335 17.189 6.81116 16.6667 6.16683 16.6667C5.5225 16.6667 5.00016 17.189 5.00016 17.8333C5.00016 18.4777 5.5225 19 6.16683 19Z" fill="white"/>
<path d="M13.1668 17.8333C13.1668 18.4777 12.6445 19 12.0002 19C11.3558 19 10.8335 18.4777 10.8335 17.8333C10.8335 17.189 11.3558 16.6667 12.0002 16.6667C12.6445 16.6667 13.1668 17.189 13.1668 17.8333Z" fill="white"/>
<path d="M17.8335 19C18.4778 19 19.0002 18.4777 19.0002 17.8333C19.0002 17.189 18.4778 16.6667 17.8335 16.6667C17.1892 16.6667 16.6668 17.189 16.6668 17.8333C16.6668 18.4777 17.1892 19 17.8335 19Z" fill="white"/>
<path fill-rule="evenodd" clip-rule="evenodd" d="M7.04183 1.5C7.04183 1.01675 6.65008 0.625 6.16683 0.625C5.68358 0.625 5.29183 1.01675 5.29183 1.5H5.00016C2.42283 1.5 0.333496 3.58934 0.333496 6.16667V19C0.333496 21.5773 2.42283 23.6667 5.00016 23.6667H19.0002C21.5775 23.6667 23.6668 21.5773 23.6668 19V6.16667C23.6668 3.58934 21.5775 1.5 19.0002 1.5H18.7085C18.7085 1.01675 18.3167 0.625 17.8335 0.625C17.3502 0.625 16.9585 1.01675 16.9585 1.5H7.04183ZM16.9585 5V3.25H7.04183V5C7.04183 5.48325 6.65008 5.875 6.16683 5.875C5.68358 5.875 5.29183 5.48325 5.29183 5V3.25H5.00016C3.38933 3.25 2.0835 4.55584 2.0835 6.16667V19C2.0835 20.6108 3.38933 21.9167 5.00016 21.9167H19.0002C20.611 21.9167 21.9168 20.6108 21.9168 19V6.16667C21.9168 4.55584 20.611 3.25 19.0002 3.25H18.7085V5C18.7085 5.48325 18.3167 5.875 17.8335 5.875C17.3502 5.875 16.9585 5.48325 16.9585 5Z" fill="white"/>
</svg>
