<svg width="29" height="28" viewBox="0 0 29 28" fill="none" xmlns="http://www.w3.org/2000/svg">
<path fill-rule="evenodd" clip-rule="evenodd" d="M8.36133 8.16658C8.68349 8.16658 8.94466 7.90542 8.94466 7.58325C8.94466 7.26109 8.68349 6.99992 8.36133 6.99992C8.03916 6.99992 7.77799 7.26109 7.77799 7.58325C7.77799 7.90542 8.03916 8.16658 8.36133 8.16658ZM8.36133 9.91658C9.64999 9.91658 10.6947 8.87192 10.6947 7.58325C10.6947 6.29459 9.64999 5.24992 8.36133 5.24992C7.07266 5.24992 6.02799 6.29459 6.02799 7.58325C6.02799 8.87192 7.07266 9.91658 8.36133 9.91658Z" fill="white"/>
<path fill-rule="evenodd" clip-rule="evenodd" d="M26.4447 19.2499C26.4447 16.3504 24.0942 13.9999 21.1947 13.9999C18.2952 13.9999 15.9447 16.3504 15.9447 19.2499C16.0224 20.0227 16.2256 20.7605 16.5369 21.4482C17.1533 22.8104 18.1934 23.9757 19.5208 24.825C20.1611 25.2347 20.9184 25.3747 21.6407 25.2527C22.0628 25.1815 22.473 25.0207 22.8409 24.772C24.7343 23.4922 26.2161 21.5217 26.4447 19.2499ZM17.6957 19.1645C17.8929 20.8353 18.8874 22.3422 20.464 23.3509C20.8786 23.6162 21.4308 23.6129 21.8609 23.3222C23.4262 22.2641 24.5011 20.747 24.6936 19.1633C24.6476 17.2703 23.0987 15.7499 21.1947 15.7499C19.2902 15.7499 17.741 17.271 17.6957 19.1645Z" fill="white"/>
<path fill-rule="evenodd" clip-rule="evenodd" d="M21.1947 19.8333C21.5168 19.8333 21.778 19.5721 21.778 19.2499C21.778 18.9278 21.5168 18.6666 21.1947 18.6666C20.8725 18.6666 20.6113 18.9278 20.6113 19.2499C20.6113 19.5721 20.8725 19.8333 21.1947 19.8333ZM21.1947 21.5833C22.4833 21.5833 23.528 20.5386 23.528 19.2499C23.528 17.9613 22.4833 16.9166 21.1947 16.9166C19.906 16.9166 18.8613 17.9613 18.8613 19.2499C18.8613 20.5386 19.906 21.5833 21.1947 21.5833Z" fill="white"/>
<path d="M9.2901 13.4633C8.72113 13.6587 8.10624 13.6816 7.52746 13.5278C7.49572 13.7496 7.4161 14.0099 7.27872 14.3201C7.05768 14.8192 6.74103 15.3349 6.38519 15.9144C6.33398 15.9978 6.28196 16.0825 6.22929 16.1687C5.83271 16.8176 5.39678 17.5547 5.15114 18.3023C4.89908 19.0695 4.81467 19.9465 5.24536 20.8079C6.01603 22.3493 7.42505 22.8941 8.67301 22.9772C9.88075 23.0576 11.0778 22.7238 11.7282 22.3336C12.17 22.0685 12.807 22.0191 13.6873 22.233C14.557 22.4443 15.5202 22.8781 16.4898 23.3809C16.9651 23.6273 17.4288 23.8832 17.876 24.1301L17.8905 24.1381C18.3371 24.3845 18.7731 24.6251 19.1681 24.8249C19.5569 25.0217 19.9466 25.2003 20.2983 25.3074C20.5931 25.3971 21.1107 25.5202 21.586 25.2826C21.6047 25.2732 21.623 25.2632 21.6407 25.2527C20.9184 25.3747 20.1611 25.2347 19.5208 24.825C18.1934 23.9757 17.1533 22.8104 16.5369 21.4482C15.7481 21.0708 14.9146 20.7303 14.1005 20.5325C13.0302 20.2724 11.8443 20.223 10.8278 20.8329C10.506 21.026 9.66827 21.2895 8.78921 21.231C7.95037 21.1752 7.22051 20.8451 6.81061 20.0253C6.65797 19.72 6.64648 19.3575 6.8137 18.8486C6.98733 18.3201 7.31703 17.7448 7.72253 17.0812C7.77125 17.0015 7.82121 16.9203 7.87196 16.8378C8.22064 16.271 8.60625 15.6442 8.87883 15.0287C9.08849 14.5553 9.26277 14.0227 9.2901 13.4633Z" fill="white"/>
<path fill-rule="evenodd" clip-rule="evenodd" d="M13.6113 7.58325C13.6113 4.68376 11.2608 2.33325 8.36133 2.33325C5.46183 2.33325 3.11133 4.68376 3.11133 7.58325C3.34303 9.88658 4.68991 11.8803 6.68751 13.1584C6.95118 13.3271 7.2347 13.45 7.52746 13.5278C8.10624 13.6816 8.72113 13.6587 9.2901 13.4633C9.54046 13.3773 9.78194 13.2579 10.0075 13.1054C11.901 11.8255 13.3828 9.85499 13.6113 7.58325ZM4.86235 7.49784C5.05957 9.16863 6.05407 10.6756 7.63066 11.6843C8.04523 11.9495 8.5975 11.9462 9.02753 11.6555C10.5929 10.5975 11.6677 9.08032 11.8603 7.49665C11.8143 5.60367 10.2654 4.08325 8.36133 4.08325C6.45688 4.08325 4.9077 5.60431 4.86235 7.49784Z" fill="white"/>
<path fill-rule="evenodd" clip-rule="evenodd" d="M8.36133 9.91658C9.64999 9.91658 10.6947 8.87192 10.6947 7.58325C10.6947 6.29459 9.64999 5.24992 8.36133 5.24992C7.07266 5.24992 6.02799 6.29459 6.02799 7.58325C6.02799 8.87192 7.07266 9.91658 8.36133 9.91658ZM8.36133 8.16658C8.68349 8.16658 8.94466 7.90542 8.94466 7.58325C8.94466 7.26109 8.68349 6.99992 8.36133 6.99992C8.03916 6.99992 7.77799 7.26109 7.77799 7.58325C7.77799 7.90542 8.03916 8.16658 8.36133 8.16658Z" fill="white"/>
</svg>
