<svg width="27" height="28" viewBox="0 0 27 28" fill="none" xmlns="http://www.w3.org/2000/svg">
<path d="M13.5972 27.4025C6.20884 27.4025 0.194336 21.388 0.194336 13.9997C0.194336 6.61139 6.20884 0.596924 13.5972 0.596924C20.9855 0.596924 27 6.61139 27 13.9997C27 21.388 20.9855 27.4025 13.5972 27.4025ZM13.5972 1.6146C6.76856 1.6146 1.21201 7.17111 1.21201 13.9997C1.21201 20.8283 6.76856 26.3848 13.5972 26.3848C20.4258 26.3848 25.9823 20.8283 25.9823 13.9997C25.9823 7.17111 20.4258 1.6146 13.5972 1.6146Z" fill="#05414B"/>
<path d="M13.5992 27.586L13.2532 27.2705C9.72188 24.0547 7.93066 19.5972 7.93066 14C7.93066 8.40282 9.72188 3.9454 13.2532 0.729542L13.5992 0.414062L13.9452 0.729542C17.4765 3.9454 19.2676 8.40282 19.2676 14C19.2676 19.5972 17.4765 24.0547 13.9452 27.2705L13.5992 27.586ZM13.5992 1.80828C10.5156 4.79007 8.94834 8.8913 8.94834 14C8.94834 19.1088 10.5156 23.21 13.5992 26.1918C16.6827 23.21 18.2499 19.1088 18.2499 14C18.2499 8.8913 16.6827 4.79007 13.5992 1.80828Z" fill="#05414B"/>
<path d="M25.8388 18.3865H1.34331C1.05836 18.3865 0.834473 18.1626 0.834473 17.8777C0.834473 17.5927 1.05836 17.3689 1.34331 17.3689H25.8388C26.1238 17.3689 26.3477 17.5927 26.3477 17.8777C26.3477 18.1626 26.1238 18.3865 25.8388 18.3865ZM25.8388 10.6522H1.34331C1.05836 10.6522 0.834473 10.4283 0.834473 10.1434C0.834473 9.85841 1.05836 9.63452 1.34331 9.63452H25.8388C26.1238 9.63452 26.3477 9.85841 26.3477 10.1434C26.3477 10.4283 26.1238 10.6522 25.8388 10.6522Z" fill="#05414B"/>
</svg>
