<svg width="42" height="42" viewBox="0 0 42 42" fill="none" xmlns="http://www.w3.org/2000/svg">
<mask id="path-1-inside-1_278_1262" fill="white">
<path d="M42 21C42 9.40202 32.598 0 21 0C9.40202 0 0 9.40202 0 21C0 32.598 9.40202 42 21 42C32.598 42 42 32.598 42 21Z"/>
</mask>
<path d="M42 21C42 9.40202 32.598 0 21 0C9.40202 0 0 9.40202 0 21C0 32.598 9.40202 42 21 42C32.598 42 42 32.598 42 21Z" fill="#F5F5F5"/>
<path d="M42 0H0H42ZM0 42H42H0ZM42 42V0V42ZM19 0C7.40202 0 -2 9.40202 -2 21C-2 32.598 7.40202 42 19 42H21C10.5066 42 2 32.598 2 21C2 9.40202 10.5066 0 21 0H19Z" fill="#A8513A" mask="url(#path-1-inside-1_278_1262)"/>
<path fill-rule="evenodd" clip-rule="evenodd" d="M24.8999 21L19.8548 15.3013L16.7999 15L21.7988 21L16.7999 27L19.8548 26.6736L24.8999 21Z" fill="#A8513A"/>
</svg>
