<svg width="23" height="22" viewBox="0 0 23 22" fill="none" xmlns="http://www.w3.org/2000/svg">
<path d="M18.0187 10.1924V9.6267C18.0187 9.54205 18.0187 9.49973 18.0182 9.46393C17.9795 6.75855 15.7957 4.57479 13.0903 4.53605C13.0545 4.53553 13.0122 4.53553 12.9276 4.53553H12.3619M21.5544 10.8995V9.90954C21.5544 9.0649 21.5544 8.64258 21.5225 8.28659C21.1774 4.43191 18.1225 1.37699 14.2678 1.03187C13.9118 1 13.4894 0.999999 12.6448 1L11.6549 1M8.43263 8.22339C7.97939 9.26317 8.20878 10.4744 9.01083 11.2765L11.4076 13.6733C12.2097 14.4753 13.4209 14.7047 14.4607 14.2515C15.5005 13.7982 16.7117 14.0276 17.5138 14.8297L18.972 16.2879C19.0426 16.3585 19.078 16.3938 19.1066 16.425C19.8096 17.1901 19.8096 18.3662 19.1066 19.1314C19.078 19.1625 19.0426 19.1978 18.972 19.2685L18.0856 20.1548C17.3639 20.8766 16.3233 21.1796 15.3269 20.9582C8.53726 19.4494 3.23473 14.1468 1.72594 7.35725C1.5045 6.36079 1.8075 5.32026 2.5293 4.59846L3.41564 3.71212C3.48628 3.64147 3.52161 3.60615 3.55273 3.57756C4.31788 2.87448 5.49399 2.87448 6.25915 3.57756C6.29027 3.60615 6.32559 3.64147 6.39624 3.71212L7.85443 5.17032C8.65649 5.97237 8.88587 7.18361 8.43263 8.22339Z" stroke="#05414B" stroke-width="1.5" stroke-linecap="round"/>
</svg>
