<svg width="28" height="28" viewBox="0 0 28 28" fill="none" xmlns="http://www.w3.org/2000/svg">
<path fill-rule="evenodd" clip-rule="evenodd" d="M4.56995 5.22894L3.56727 7.23429C2.76199 8.84486 2.41988 10.6697 3.0067 12.3721C3.71158 14.4169 5.1209 17.3474 7.88685 20.1134C10.6528 22.8793 13.5833 24.2887 15.6282 24.9935C17.3305 25.5804 19.1554 25.2382 20.7659 24.433L22.8383 23.3968C24.2433 22.6943 24.5668 20.8323 23.4811 19.6971L21.1951 17.3067C20.3941 16.4691 19.0957 16.3563 18.1622 17.0432C17.1153 17.8135 15.7154 17.9448 14.6181 17.2482C13.9633 16.8326 13.2665 16.3365 12.7721 15.8422C12.1985 15.2686 11.6226 14.4224 11.1727 13.6856C10.5981 12.7444 10.6063 11.5773 11.0994 10.591L11.406 9.97796C11.8551 9.07966 11.6791 7.99472 10.9689 7.28455L8.30686 4.62252C7.1807 3.49636 5.2822 3.80445 4.56995 5.22894ZM6.1352 6.01157L5.13252 8.01692C4.46086 9.36023 4.27571 10.6835 4.66117 11.8018C5.30101 13.6579 6.5879 16.3396 9.12428 18.8759C11.6607 21.4123 14.3423 22.6992 16.1985 23.3391C17.3167 23.7245 18.64 23.5394 19.9833 22.8677L22.0557 21.8315C22.407 21.6559 22.4878 21.1904 22.2164 20.9066L19.9304 18.5163C19.7373 18.3144 19.4243 18.2872 19.1993 18.4527C17.6493 19.5932 15.465 19.8586 13.6802 18.7257C12.9928 18.2894 12.1666 17.7115 11.5347 17.0796C10.808 16.3529 10.1443 15.3594 9.67911 14.5975C8.7536 13.0817 8.80428 11.2682 9.5342 9.80838L9.84072 9.19534C9.95301 8.97076 9.90899 8.69953 9.73145 8.52198L7.06942 5.85996C6.78788 5.57842 6.31326 5.65544 6.1352 6.01157Z" fill="white"/>
<path d="M18.125 9.47493C17.3626 8.71251 16.4362 8.30196 15.7326 8.40246C15.4137 8.44802 15.1182 8.22641 15.0727 7.90748C15.0271 7.58855 15.2487 7.29308 15.5677 7.24752C16.789 7.07306 18.0625 7.76247 18.95 8.64997C19.8375 9.53748 20.5269 10.811 20.3524 12.0323C20.3068 12.3512 20.0113 12.5728 19.6924 12.5273C19.3735 12.4817 19.1519 12.1862 19.1974 11.8673C19.298 11.1637 18.8874 10.2373 18.125 9.47493Z" fill="white"/>
<path d="M15.0321 10.8453C16.1568 10.4187 17.1812 11.4432 16.7546 12.5679C16.6404 12.8691 16.7919 13.2059 17.0932 13.3202C17.3944 13.4344 17.7312 13.2829 17.8455 12.9817C18.6288 10.9165 16.6834 8.97115 14.6183 9.75445C14.3171 9.8687 14.1655 10.2055 14.2798 10.5067C14.394 10.808 14.7308 10.9595 15.0321 10.8453Z" fill="white"/>
</svg>
