<svg width="344" height="139" viewBox="0 0 344 139" fill="none" xmlns="http://www.w3.org/2000/svg">
<g clip-path="url(#clip0_314_596)">
<path d="M151.923 95.2154C167.66 71.3559 149.644 41.1469 121.754 42.9114C122.231 38.5741 123.328 34.3273 125.011 30.3003C142.427 31.2867 156.004 38.7905 164.534 54.1233C172.699 68.8095 172.135 83.7733 164.567 98.6532C160.216 98.0871 155.962 96.9305 151.923 95.2154Z" fill="#A8513A"/>
<path d="M201.613 9.42171C204.105 10.9524 208.804 15.5556 210.876 18.5549C201.847 32.4374 189.189 40.259 172.428 40.7888C153.859 41.3696 139.001 30.6765 131.968 18.354C134.603 14.961 137.68 11.9337 141.117 9.35229C147.656 21.3095 157.501 28.2032 171.294 28.2361C185.087 28.269 194.989 21.4264 201.613 9.42171Z" fill="#A8513A"/>
<path d="M190.799 95.2227C186.782 96.9338 182.551 98.0915 178.221 98.6641C170.69 83.8573 170.086 68.9739 178.126 54.3388C186.605 38.9037 200.193 31.3232 217.73 30.2893C219.416 34.3095 220.536 38.5438 221.057 42.8712C207.3 42.5607 196.406 47.7081 189.518 59.6142C182.631 71.5202 183.612 83.5176 190.799 95.2227Z" fill="#A8513A"/>
<path d="M143.177 90.4699C139.505 87.9842 136.188 85.0112 133.318 81.6327C136.714 80.3869 138.983 78.1986 139.821 74.7426C140.133 73.5173 140.185 72.2406 139.973 70.9942C139.761 69.7478 139.291 68.5594 138.592 67.5054C135.938 63.3224 129.596 61.3314 124.18 65.7884C122.649 61.6416 121.727 57.2954 121.443 52.885C129.637 48.5011 143.034 50.3935 149.57 61.3898C156.205 72.5323 151.349 85.3334 143.177 90.4699Z" fill="#A8513A"/>
<path d="M209.383 81.713C206.533 85.0546 203.251 88.0031 199.622 90.4809C192.215 86.0275 186.422 73.6758 192.841 62.0255C198.997 50.8355 212.446 48.2855 221.309 52.8667C221.025 57.3053 220.113 61.6815 218.601 65.8651C215.79 63.421 212.632 62.6502 209.148 63.7169C207.978 64.0682 206.892 64.6557 205.959 65.4432C205.025 66.2306 204.264 67.2011 203.721 68.2945C201.072 73.3433 203.169 78.3666 209.383 81.713Z" fill="#A8513A"/>
<path d="M162.236 0C161.629 3.48158 162.353 6.46996 164.798 8.914C165.736 9.84034 166.86 10.5584 168.095 11.0211C169.331 11.4838 170.65 11.6807 171.967 11.5989C173.284 11.5172 174.569 11.1586 175.738 10.5467C176.906 9.93482 177.932 9.08339 178.748 8.04818C180.578 5.72469 181.05 3.04318 180.542 0.164391C183.213 0.200924 190.338 2.50614 193.123 4.183C192.845 13.3162 184.454 24.3783 170.979 24.1555C158.017 23.9363 149.944 13.1956 149.64 4.09898C153.625 2.14837 157.865 0.768455 162.236 0Z" fill="#A8513A"/>
<path d="M8.60366 111.169V126.677C8.60366 127.949 8.88544 128.953 9.4417 129.691C9.99795 130.429 10.9055 130.787 12.1498 130.787C13.394 130.787 14.3163 130.422 14.9128 129.691C15.5093 128.961 15.8094 127.949 15.8094 126.677V111.169H24.413V126.677C24.413 129.296 23.869 131.531 22.7809 133.385C21.7378 135.192 20.1764 136.647 18.2979 137.56C16.3203 138.513 14.1476 138.992 11.9522 138.96C9.79537 139.004 7.66013 138.524 5.7309 137.56C3.93311 136.635 2.46012 135.185 1.50774 133.403C0.50258 131.562 0 129.32 0 126.677V111.169H8.60366Z" fill="white"/>
<path d="M25.1339 117.621C26.1933 115.543 27.8381 113.82 29.8658 112.664C32.0803 111.444 34.5797 110.834 37.1081 110.895C39.317 110.86 41.5056 111.321 43.5123 112.243C45.3435 113.095 46.9258 114.401 48.1087 116.036C49.3174 117.735 50.1232 119.686 50.4655 121.742H41.3532C40.9762 120.882 40.3619 120.147 39.5819 119.623C38.8015 119.114 37.8865 118.849 36.9543 118.863C36.2904 118.838 35.6302 118.973 35.0299 119.257C34.4297 119.542 33.9072 119.967 33.507 120.496C32.6629 121.585 32.2408 123.046 32.2408 124.88C32.2408 126.714 32.6629 128.175 33.507 129.264C33.9072 129.794 34.4297 130.219 35.0299 130.503C35.6302 130.787 36.2904 130.922 36.9543 130.897C37.8867 130.913 38.8023 130.648 39.5819 130.137C40.3617 129.615 40.9762 128.881 41.3532 128.022H50.4655C50.1236 130.08 49.3177 132.034 48.1087 133.736C46.9256 135.369 45.3432 136.674 43.5123 137.524C41.5056 138.446 39.3166 138.904 37.1081 138.865C34.3292 138.865 31.9151 138.275 29.8658 137.097C27.8381 135.94 26.1933 134.217 25.1339 132.139C24.0439 129.871 23.478 127.387 23.478 124.871C23.478 122.355 24.0439 119.871 25.1339 117.603V117.621Z" fill="white"/>
<path d="M51.2599 137.794C50.8218 137.422 50.4723 136.956 50.2369 136.432C50.0014 135.907 49.8858 135.337 49.8985 134.762C49.885 134.179 50 133.6 50.2352 133.066C50.4704 132.532 50.8202 132.056 51.2599 131.672C52.1675 130.858 53.3751 130.45 54.8829 130.448C56.1892 130.388 57.4695 130.826 58.4656 131.672C58.9053 132.056 59.2551 132.532 59.4903 133.066C59.7255 133.6 59.8404 134.179 59.827 134.762C59.8397 135.337 59.7241 135.907 59.4886 136.432C59.2532 136.956 58.9037 137.422 58.4656 137.794C57.4648 138.63 56.1862 139.06 54.8829 139C53.3751 139 52.1675 138.598 51.2599 137.794Z" fill="white"/>
<path d="M82.3405 113.23C84.4472 114.285 86.1951 115.937 87.3651 117.979C88.5801 120.171 89.1913 122.646 89.1363 125.151C89.1947 127.644 88.5831 130.108 87.3651 132.285C86.1902 134.319 84.4431 135.964 82.3405 137.016C80.0008 138.173 77.4155 138.747 74.8054 138.69H65.2905V111.557H74.8054C77.4154 111.501 80.0002 112.075 82.3405 113.23ZM81.2426 131.73C82.8016 130.179 83.5799 127.987 83.5774 125.154C83.575 122.322 82.7967 120.115 81.2426 118.534C79.6836 116.942 77.4769 116.145 74.6224 116.145H70.7689V134.065H74.6224C77.4769 134.065 79.6836 133.286 81.2426 131.73Z" fill="white"/>
<path d="M97.2055 115.948V122.75H106.354V127.068H97.2055V134.258H107.525V138.689H91.7563V111.513H107.525V115.944L97.2055 115.948Z" fill="white"/>
<path d="M135.404 111.557L125.436 138.69H118.819L108.851 111.557H114.706L122.182 133.111L129.619 111.557H135.404Z" fill="white"/>
<path d="M142.65 115.948V122.75H151.799V127.068H142.65V134.258H152.97V138.689H137.197V111.513H152.97V115.944L142.65 115.948Z" fill="white"/>
<path d="M161.885 134.375H170.84V138.69H156.432V111.557H161.885V134.375Z" fill="white"/>
<path d="M178.433 137.173C176.329 136.008 174.58 134.294 173.372 132.216C172.144 130.032 171.5 127.569 171.5 125.064C171.5 122.56 172.144 120.097 173.372 117.913C174.583 115.842 176.332 114.136 178.433 112.974C180.587 111.802 183 111.188 185.452 111.188C187.905 111.188 190.318 111.802 192.471 112.974C194.564 114.143 196.3 115.856 197.496 117.931C198.708 120.121 199.344 122.581 199.344 125.083C199.344 127.584 198.708 130.045 197.496 132.234C196.298 134.313 194.554 136.027 192.453 137.192C190.303 138.362 187.893 138.976 185.443 138.976C182.994 138.976 180.584 138.362 178.433 137.192V137.173ZM189.778 132.994C191.041 132.244 192.058 131.143 192.706 129.827C193.429 128.333 193.783 126.688 193.738 125.03C193.773 123.385 193.412 121.756 192.684 120.28C192.035 118.974 191.017 117.885 189.756 117.15C188.44 116.404 186.947 116.025 185.434 116.054C183.915 116.027 182.417 116.406 181.094 117.15C179.832 117.884 178.813 118.973 178.166 120.28C177.442 121.757 177.084 123.386 177.123 125.03C177.087 126.685 177.449 128.325 178.177 129.812C178.823 131.13 179.841 132.231 181.105 132.979C182.426 133.729 183.926 134.108 185.445 134.075C186.956 134.114 188.449 133.74 189.763 132.994H189.778Z" fill="white"/>
<path d="M220.702 124.036C219.957 125.359 218.831 126.428 217.47 127.105C216.007 127.884 214.157 128.273 211.923 128.27H207.366V138.689H201.914V111.557H211.923C213.774 111.506 215.612 111.881 217.295 112.653C218.68 113.294 219.84 114.337 220.625 115.645C221.34 116.927 221.721 118.368 221.734 119.836C221.748 121.304 221.393 122.752 220.702 124.047V124.036ZM215.037 122.838C215.769 122.151 216.135 121.187 216.135 119.941C216.135 117.298 214.655 115.977 211.696 115.977H207.374V123.868H211.696C213.194 123.875 214.307 123.532 215.037 122.838Z" fill="white"/>
<path d="M253.74 111.557V138.69H248.291V121.041L241.009 138.69H236.881L229.562 121.041V138.69H224.109V111.557H230.301L238.945 131.73L247.589 111.557H253.74Z" fill="white"/>
<path d="M263.087 115.948V122.75H272.235V127.068H263.087V134.258H273.403V138.689H257.634V111.513H273.403V115.944L263.087 115.948Z" fill="white"/>
<path d="M300.118 138.689H294.665L282.321 120.058V138.689H276.869V111.513H282.321L294.665 130.174V111.513H300.118V138.689Z" fill="white"/>
<path d="M322.507 111.557V115.941H315.265V138.682H309.812V115.948H302.57V111.564L322.507 111.557Z" fill="white"/>
<path d="M329.263 137.988C327.826 137.405 326.579 136.436 325.658 135.19C324.762 133.93 324.286 132.42 324.297 130.875H330.152C330.165 131.373 330.277 131.863 330.481 132.317C330.685 132.771 330.978 133.18 331.342 133.52C332.074 134.167 333.032 134.492 334.269 134.492C335.506 134.492 336.542 134.189 337.267 133.578C337.621 133.291 337.905 132.925 338.096 132.51C338.286 132.095 338.378 131.642 338.364 131.186C338.393 130.455 338.13 129.743 337.633 129.205C337.118 128.671 336.494 128.253 335.803 127.982C334.801 127.598 333.78 127.266 332.743 126.988C331.276 126.576 329.839 126.064 328.443 125.454C327.32 124.935 326.343 124.147 325.6 123.159C324.807 122.136 324.41 120.77 324.41 119.06C324.375 117.571 324.796 116.106 325.618 114.863C326.458 113.64 327.635 112.686 329.007 112.119C330.585 111.462 332.282 111.139 333.991 111.169C336.794 111.169 339.072 111.849 340.824 113.208C342.575 114.567 343.543 116.465 343.726 118.903H337.728C337.709 118.455 337.593 118.017 337.388 117.617C337.184 117.218 336.895 116.868 336.542 116.591C335.704 115.951 334.668 115.628 333.614 115.677C332.689 115.627 331.778 115.917 331.053 116.492C330.727 116.791 330.472 117.16 330.308 117.57C330.143 117.98 330.073 118.422 330.101 118.863C330.089 119.202 330.149 119.539 330.275 119.853C330.401 120.168 330.591 120.453 330.833 120.69C331.346 121.193 331.954 121.589 332.623 121.855C333.611 122.249 334.618 122.593 335.642 122.885C337.118 123.299 338.563 123.819 339.964 124.442C341.098 124.976 342.086 125.775 342.844 126.772C343.649 127.81 344.051 129.171 344.051 130.857C344.058 132.282 343.666 133.681 342.921 134.897C342.128 136.181 340.986 137.213 339.627 137.871C338.012 138.641 336.237 139.016 334.449 138.967C332.671 139.002 330.905 138.669 329.263 137.988Z" fill="white"/>
</g>
<defs>
<clipPath id="clip0_314_596">
<rect width="344" height="139" fill="white"/>
</clipPath>
</defs>
</svg>
