<svg width="223" height="90" viewBox="0 0 223 90" fill="none" xmlns="http://www.w3.org/2000/svg">
<path d="M98.5271 61.6485C108.682 46.1998 97.0558 26.64 79.0572 27.7825C79.3652 24.9742 80.073 22.2245 81.1591 19.6171C92.3985 20.2557 101.16 25.1143 106.666 35.0421C111.934 44.5511 111.571 54.2399 106.687 63.8743C103.878 63.5078 101.133 62.759 98.5271 61.6485Z" fill="#A8513A"/>
<path d="M130.594 6.09862C132.203 7.08973 135.235 10.0702 136.572 12.0122C130.745 21.0008 122.576 26.0652 111.76 26.4082C99.7764 26.7843 90.1879 19.8607 85.6487 11.8821C87.3495 9.68518 89.3351 7.72511 91.553 6.05367C95.7734 13.7957 102.126 18.2593 111.028 18.2806C119.929 18.3019 126.32 13.8714 130.594 6.09862Z" fill="#A8513A"/>
<path d="M123.615 61.6532C121.023 62.7611 118.292 63.5107 115.498 63.8814C110.638 54.2943 110.248 44.6575 115.437 35.1816C120.909 25.1877 129.678 20.2794 140.995 19.61C142.083 22.213 142.806 24.9546 143.142 27.7565C134.264 27.5555 127.234 30.8884 122.789 38.5973C118.344 46.3063 118.977 54.0743 123.615 61.6532Z" fill="#A8513A"/>
<path d="M92.8826 58.5758C90.5125 56.9663 88.3721 55.0413 86.5202 52.8538C88.7119 52.0472 90.1761 50.6303 90.7169 48.3926C90.9183 47.5993 90.9517 46.7726 90.815 45.9656C90.6783 45.1586 90.3746 44.3891 89.9234 43.7066C88.2112 40.9982 84.1184 39.7091 80.623 42.5949C79.635 39.9099 79.04 37.0958 78.8565 34.2402C84.1443 31.4017 92.7905 32.627 97.0085 39.7469C101.29 46.9615 98.1563 55.25 92.8826 58.5758Z" fill="#A8513A"/>
<path d="M135.608 52.9058C133.769 55.0694 131.651 56.9785 129.31 58.5828C124.529 55.6994 120.791 47.7018 124.933 40.1585C128.906 32.9132 137.585 31.2621 143.305 34.2283C143.122 37.1023 142.533 39.9357 141.557 42.6446C139.744 41.0621 137.705 40.563 135.457 41.2537C134.702 41.4811 134.001 41.8615 133.399 42.3714C132.796 42.8812 132.305 43.5096 131.955 44.2176C130.245 47.4866 131.598 50.7391 135.608 52.9058Z" fill="#A8513A"/>
<path d="M105.182 -0.00183105C104.79 2.25243 105.258 4.18735 106.836 5.76982C107.441 6.36961 108.166 6.83452 108.963 7.13411C109.761 7.43369 110.612 7.5612 111.462 7.50827C112.312 7.45535 113.141 7.22318 113.896 6.82699C114.65 6.43079 115.312 5.8795 115.838 5.20922C117.019 3.7048 117.324 1.96857 116.996 0.104609C118.72 0.128263 123.318 1.62085 125.115 2.70659C124.936 8.62017 119.52 15.7827 110.824 15.6384C102.459 15.4965 97.2494 8.54211 97.0534 2.65219C99.625 1.3892 102.362 0.49573 105.182 -0.00183105Z" fill="#A8513A"/>
<path d="M6.03576 71.9783V82.0196C6.03576 82.8427 6.21761 83.4932 6.57659 83.971C6.93557 84.4489 7.52127 84.6807 8.32425 84.6807C9.12723 84.6807 9.72238 84.4441 10.1073 83.971C10.4923 83.498 10.686 82.8427 10.686 82.0196V71.9783H16.2383V82.0196C16.2383 83.7148 15.8872 85.1624 15.185 86.3625C14.5118 87.5329 13.5042 88.4745 12.2919 89.0662C11.0157 89.6828 9.61352 89.993 8.19671 89.9721C6.80483 90.0011 5.42686 89.6901 4.18182 89.0662C3.02162 88.4668 2.07104 87.5279 1.45642 86.3743C0.807738 85.1821 0.483398 83.7306 0.483398 82.0196V71.9783H6.03576Z" fill="#05414B"/>
<path d="M16.7036 76.1556C17.3873 74.8104 18.4487 73.6947 19.7572 72.9458C21.1864 72.1561 22.7994 71.761 24.4311 71.8009C25.8566 71.7783 27.269 72.0766 28.564 72.6737C29.7458 73.2253 30.7669 74.0705 31.5303 75.1291C32.3103 76.2293 32.8304 77.4927 33.0513 78.8239H27.1706C26.9274 78.2671 26.5309 77.7913 26.0276 77.4519C25.5239 77.1223 24.9334 76.951 24.3319 76.9599C23.9034 76.9435 23.4773 77.031 23.09 77.2151C22.7026 77.3992 22.3654 77.6744 22.1071 78.0173C21.5624 78.7222 21.29 79.6683 21.29 80.8558C21.29 82.0432 21.5624 82.9894 22.1071 83.6943C22.3654 84.0371 22.7026 84.3123 23.09 84.4964C23.4773 84.6805 23.9034 84.7681 24.3319 84.7516C24.9336 84.7617 25.5244 84.5903 26.0276 84.2596C26.5308 83.9212 26.9273 83.4461 27.1706 82.89H33.0513C32.8306 84.2227 32.3105 85.4877 31.5303 86.5896C30.7668 87.6474 29.7456 88.4918 28.564 89.0425C27.269 89.6392 25.8563 89.936 24.4311 89.9107C22.6377 89.9107 21.0798 89.529 19.7572 88.7658C18.4487 88.0169 17.3873 86.9011 16.7036 85.5559C16.0001 84.0871 15.6349 82.4789 15.6349 80.8499C15.6349 79.2208 16.0001 77.6126 16.7036 76.1438V76.1556Z" fill="#05414B"/>
<path d="M33.5638 89.2176C33.281 88.9761 33.0555 88.6747 32.9035 88.3351C32.7516 87.9955 32.677 87.6263 32.6852 87.2543C32.6765 86.8766 32.7507 86.5017 32.9025 86.1559C33.0543 85.8101 33.28 85.5019 33.5638 85.2531C34.1495 84.7264 34.9288 84.4623 35.9018 84.4607C36.7449 84.4223 37.5711 84.7055 38.2139 85.2531C38.4977 85.5019 38.7234 85.8101 38.8752 86.1559C39.027 86.5017 39.1012 86.8766 39.0925 87.2543C39.1007 87.6263 39.0261 87.9955 38.8742 88.3351C38.7222 88.6747 38.4967 88.9761 38.2139 89.2176C37.5681 89.7587 36.743 90.0373 35.9018 89.9982C34.9288 89.9982 34.1495 89.738 33.5638 89.2176Z" fill="#05414B"/>
<path d="M53.6217 73.3124C54.9812 73.9953 56.1092 75.0651 56.8643 76.3875C57.6484 77.8068 58.0429 79.409 58.0074 81.0308C58.045 82.6453 57.6503 84.2404 56.8643 85.6505C56.1061 86.9674 54.9786 88.0325 53.6217 88.7137C52.1118 89.4624 50.4434 89.8341 48.7589 89.7971H42.6185V72.229H48.7589C50.4433 72.1931 52.1114 72.5648 53.6217 73.3124ZM52.9132 85.2909C53.9193 84.2864 54.4215 82.8672 54.42 81.0332C54.4184 79.1992 53.9161 77.7704 52.9132 76.747C51.9071 75.7157 50.483 75.2 48.6409 75.2H46.154V86.8025H48.6409C50.483 86.8025 51.9071 86.2986 52.9132 85.2909Z" fill="#05414B"/>
<path d="M63.2149 75.0723V79.4767H69.1192V82.2727H63.2149V86.9278H69.8749V89.7971H59.6983V72.2006H69.8749V75.0699L63.2149 75.0723Z" fill="#05414B"/>
<path d="M87.8664 72.229L81.4331 89.7971H77.1631L70.7299 72.229H74.5086L79.3335 86.1851L84.1325 72.229H87.8664Z" fill="#05414B"/>
<path d="M92.5425 75.0723V79.4767H98.4468V82.2727H92.5425V86.9278H99.2025V89.7971H89.0236V72.2006H99.2025V75.0699L92.5425 75.0723Z" fill="#05414B"/>
<path d="M104.956 87.0035H110.735V89.7971H101.437V72.229H104.956V87.0035Z" fill="#05414B"/>
<path d="M115.635 88.8154C114.277 88.0607 113.148 86.9514 112.369 85.6056C111.577 84.1913 111.161 82.5969 111.161 80.9752C111.161 79.3535 111.577 77.7591 112.369 76.3449C113.151 75.0039 114.279 73.899 115.635 73.1468C117.025 72.3878 118.582 71.9901 120.165 71.9901C121.748 71.9901 123.305 72.3878 124.695 73.1468C126.045 73.9038 127.166 75.0131 127.937 76.3567C128.72 77.7742 129.13 79.3674 129.13 80.9871C129.13 82.6067 128.72 84.1999 127.937 85.6174C127.164 86.9637 126.039 88.0734 124.683 88.8273C123.295 89.5854 121.74 89.9827 120.159 89.9827C118.578 89.9827 117.023 89.5854 115.635 88.8273V88.8154ZM122.957 86.1094C123.772 85.6238 124.428 84.9112 124.846 84.0586C125.313 83.0915 125.541 82.0265 125.512 80.9528C125.535 79.8879 125.302 78.8332 124.832 77.8777C124.413 77.0317 123.756 76.327 122.942 75.8505C122.093 75.3677 121.13 75.1226 120.153 75.1409C119.173 75.1238 118.206 75.3687 117.352 75.8505C116.538 76.3261 115.881 77.031 115.463 77.8777C114.995 78.8338 114.765 79.8885 114.79 80.9528C114.767 82.0244 115 83.0861 115.47 84.0491C115.887 84.9024 116.544 85.6152 117.359 86.0999C118.212 86.5854 119.18 86.8306 120.16 86.8096C121.136 86.8346 122.099 86.5925 122.947 86.1094H122.957Z" fill="#05414B"/>
<path d="M142.913 80.3094C142.432 81.166 141.706 81.8582 140.828 82.2963C139.883 82.8009 138.689 83.0525 137.247 83.0509H134.307V89.7971H130.788V72.229H137.247C138.442 72.1962 139.628 72.439 140.714 72.9387C141.608 73.3541 142.357 74.0291 142.863 74.876C143.324 75.7065 143.571 76.6395 143.579 77.5899C143.588 78.5402 143.359 79.4776 142.913 80.3165V80.3094ZM139.257 79.5335C139.729 79.0888 139.966 78.4643 139.966 77.6577C139.966 75.9467 139.011 75.0912 137.101 75.0912H134.312V80.2005H137.101C138.067 80.2053 138.786 79.9829 139.257 79.5335Z" fill="#05414B"/>
<path d="M164.234 72.229V89.7971H160.718V78.3697L156.018 89.7971H153.354L148.631 78.3697V89.7971H145.112V72.229H149.108L154.686 85.291L160.264 72.229H164.234Z" fill="#05414B"/>
<path d="M170.266 75.0723V79.4767H176.17V82.2727H170.266V86.9278H176.924V89.7971H166.747V72.2006H176.924V75.0699L170.266 75.0723Z" fill="#05414B"/>
<path d="M194.164 89.7971H190.645L182.679 77.7334V89.7971H179.16V72.2006H182.679L190.645 84.2833V72.2006H194.164V89.7971Z" fill="#05414B"/>
<path d="M208.613 72.229V75.0675H203.939V89.7924H200.42V75.0723H195.747V72.2338L208.613 72.229Z" fill="#05414B"/>
<path d="M212.973 89.3429C212.046 88.9652 211.24 88.3382 210.647 87.531C210.068 86.7152 209.761 85.7379 209.768 84.7374H213.547C213.555 85.0596 213.627 85.3769 213.759 85.6709C213.891 85.9649 214.079 86.2297 214.314 86.45C214.787 86.8687 215.405 87.0792 216.204 87.0792C217.002 87.0792 217.67 86.8829 218.138 86.4879C218.367 86.3015 218.55 86.0648 218.673 85.7961C218.796 85.5274 218.855 85.2339 218.846 84.9385C218.865 84.4653 218.695 84.0042 218.374 83.6564C218.042 83.3102 217.639 83.0399 217.193 82.864C216.547 82.6155 215.888 82.4007 215.219 82.2206C214.272 81.9542 213.345 81.6222 212.444 81.2271C211.719 80.8917 211.088 80.3813 210.609 79.7417C210.097 79.0793 209.841 78.1947 209.841 77.0876C209.818 76.1233 210.09 75.1749 210.621 74.3698C211.162 73.5779 211.922 72.9607 212.808 72.5933C213.826 72.1679 214.921 71.9585 216.024 71.9783C217.833 71.9783 219.303 72.4183 220.433 73.2982C221.564 74.1782 222.188 75.4074 222.306 76.9859H218.435C218.423 76.6958 218.349 76.4118 218.216 76.1534C218.084 75.8949 217.898 75.6682 217.67 75.4886C217.13 75.0746 216.461 74.8651 215.781 74.8972C215.184 74.8645 214.596 75.0521 214.128 75.4247C213.918 75.6186 213.753 75.857 213.647 76.1226C213.541 76.3883 213.495 76.6743 213.514 76.9599C213.506 77.1791 213.544 77.3974 213.626 77.601C213.707 77.8047 213.83 77.9891 213.986 78.1426C214.317 78.4687 214.71 78.7252 215.141 78.8972C215.779 79.1525 216.429 79.3752 217.089 79.5642C218.042 79.8322 218.974 80.169 219.878 80.5719C220.61 80.9178 221.248 81.4355 221.737 82.0811C222.257 82.7529 222.516 83.6344 222.516 84.7256C222.521 85.6487 222.268 86.5546 221.787 87.3418C221.275 88.173 220.538 88.841 219.661 89.2673C218.619 89.7656 217.474 90.0088 216.319 89.9769C215.172 89.9995 214.033 89.7836 212.973 89.3429Z" fill="#05414B"/>
</svg>
