<svg width="88" height="73" viewBox="0 0 88 73" fill="none" xmlns="http://www.w3.org/2000/svg">
<path d="M0.212125 69.837C5.36213 63.348 14.3231 52.018 21.1211 40.585C26.4771 31.521 30.3911 21.942 29.7731 13.805C29.2581 8.449 26.8891 3.917 20.1941 3.917C10.1001 3.917 5.46513 17.101 1.65413 24.208H0.521125L4.64113 3.917H5.87713L7.62813 6.492C10.8211 4.02 15.5591 1.44499 21.9451 1.239C32.3481 0.826995 40.2791 6.801 40.0731 18.131C39.8671 28.225 33.3781 36.774 27.7131 43.057C19.5761 52.224 12.8811 57.374 8.96713 61.906H29.2581C34.2021 61.906 36.2621 57.374 38.4251 53.151H39.5581L35.2321 72H0.212125V69.837ZM46.4052 41.821C46.4052 24.208 54.4392 1.239 73.7002 1.239C75.8632 1.34199 78.2322 2.166 79.9832 3.505L80.2922 0.414995H81.3222L83.1762 16.998H82.0432C80.0862 11.024 76.7902 2.99 72.4642 2.99C62.0612 2.99 57.2202 27.607 56.4992 35.229C58.8682 29.873 64.4302 27.092 70.0952 27.092C81.8372 27.092 87.7082 36.671 87.7082 48.825C87.7082 60.67 80.7042 72.824 67.1082 72.824C50.9372 72.824 46.4052 57.065 46.4052 41.821ZM66.3872 30.491C60.6192 30.491 57.1172 37.804 56.3962 42.851C56.3962 49.443 57.5292 69.837 66.3872 70.867C75.8632 72 76.8932 58.095 76.8932 49.649C76.8932 41.821 75.2452 30.491 66.3872 30.491Z" fill="#A8513A"/>
</svg>
