 <svg width="393" height="389" viewBox="0 0 393 389" fill="none" xmlns="http://www.w3.org/2000/svg">
    <g>
                  <path d="M76.584 39.2426C102.583 85.843 141.591 112.803 195.992 112.933C250.441 113.063 289.7 86.2558 316.027 39.3999C320.71 42.5384 327.068 48.0228 333.317 54.1718C339.844 60.5937 346.144 67.6341 350.189 73.3037C314.888 127.117 265.605 157.351 200.42 159.412L76.584 39.2426ZM76.584 39.2426C63.9652 48.9031 52.6155 60.1134 42.8036 72.6088C70.4854 120.389 128.294 161.668 200.419 159.412L76.584 39.2426ZM109.469 242.975L109.47 242.976C134.92 285.822 116.663 334.981 85.6105 355.202C72.1655 345.978 59.9563 335.071 49.2793 322.748C61.9404 317.569 70.5557 308.787 73.8258 295.28C75.1039 290.243 75.3155 284.995 74.4471 279.871C73.5792 274.751 71.6514 269.868 68.7874 265.536C58.1545 248.747 33.1731 240.626 11.4811 257.104C6.03222 241.766 2.69466 225.754 1.56186 209.512C33.2548 193.135 84.4039 200.702 109.469 242.975ZM282.207 245.4L282.208 245.399C305.825 202.364 357.194 192.288 391.438 209.413C390.308 225.74 387.013 241.842 381.642 257.297C370.631 248.451 358.235 245.759 344.676 249.919C339.871 251.364 335.414 253.782 331.581 257.023C327.752 260.26 324.628 264.249 322.401 268.743C317.007 279.056 316.405 289.458 320.413 299.007C324.228 308.096 332.146 316.247 343.695 322.81C333.052 335.083 320.909 345.968 307.551 355.211C279.38 337.581 257.602 290.164 282.207 245.4ZM158.728 1.85288C156.913 15.0572 160.037 26.6039 169.549 36.1135L169.556 36.1201C173.396 39.9111 177.994 42.8495 183.051 44.743C188.107 46.6365 193.507 47.4423 198.896 47.1078C204.286 46.7733 209.544 45.306 214.327 42.8019C219.109 40.2978 223.308 36.8134 226.648 32.5766L226.649 32.576C233.754 23.5539 235.841 13.2165 234.295 2.24451C239.572 2.713 248.005 4.78766 256.635 7.55708C265.85 10.5139 275.021 14.175 280.467 17.2889C278.885 52.301 246.588 94.341 194.942 93.4872C145.312 92.648 114.245 51.8889 112.539 17.0381C127.197 9.95972 142.729 4.85387 158.728 1.85288ZM122.184 374.733C182.838 280.199 112.274 161.596 2.69354 167.216C4.61452 151.189 8.69304 135.495 14.8192 120.56C82.52 124.675 135.176 154.079 168.356 213.831C200.102 271.043 198.124 329.298 168.94 387.372C152.875 385.187 137.16 380.938 122.184 374.733ZM377.916 120.562C384.062 135.485 388.224 151.148 390.297 167.152C336.443 166.386 293.587 186.995 266.425 234.049C239.265 281.1 242.846 328.551 270.588 374.703C255.688 380.902 240.053 385.159 224.066 387.37C195.04 329.601 192.906 271.679 224.149 214.688C257.113 154.556 309.782 124.861 377.916 120.562Z" stroke="#A8513A" stroke-width="3" />
    </g>
</svg>