<svg xmlns="http://www.w3.org/2000/svg" width="27" height="28" fill="none" viewBox="0 0 27 28"><path fill="#05414B" d="M13.597 27.403C6.21 27.403.194 21.388.194 14S6.21.597 13.597.597 27 6.61 27 14c0 7.388-6.015 13.403-13.403 13.403m0-25.788C6.77 1.615 1.212 7.17 1.212 14s5.557 12.385 12.385 12.385c6.829 0 12.385-5.557 12.385-12.385 0-6.829-5.556-12.385-12.385-12.385"/><path fill="#05414B" d="m13.6 27.586-.347-.316C9.722 24.056 7.931 19.597 7.931 14S9.72 3.945 13.253.73L13.6.414l.346.316c3.532 3.215 5.323 7.673 5.323 13.27s-1.791 10.055-5.323 13.27zm0-25.778C10.515 4.79 8.947 8.891 8.947 14s1.568 9.21 4.651 12.192c3.084-2.982 4.65-7.083 4.65-12.192S16.684 4.79 13.6 1.808"/><path fill="#05414B" d="M25.839 18.387H1.343a.504.504 0 0 1-.509-.51c0-.284.224-.508.51-.508h24.495c.285 0 .509.224.509.509a.504.504 0 0 1-.51.509m0-7.735H1.343a.504.504 0 0 1-.509-.509c0-.285.224-.508.51-.508h24.495c.285 0 .509.223.509.508a.504.504 0 0 1-.51.51"/></svg>