<svg xmlns="http://www.w3.org/2000/svg" width="28" height="28" fill="none" viewBox="0 0 28 28"><path fill="#fff" fill-rule="evenodd" d="M4.57 5.229 3.567 7.234c-.805 1.61-1.147 3.436-.56 5.138.705 2.045 2.114 4.975 4.88 7.741s5.696 4.176 7.741 4.88c1.703.587 3.527.245 5.138-.56l2.072-1.036a2.333 2.333 0 0 0 .643-3.7l-2.286-2.39a2.306 2.306 0 0 0-3.033-.264c-1.047.77-2.447.902-3.544.205-.655-.415-1.351-.912-1.846-1.406-.574-.573-1.15-1.42-1.6-2.156-.574-.942-.566-2.109-.073-3.095l.307-.613a2.33 2.33 0 0 0-.437-2.693L8.307 4.623a2.333 2.333 0 0 0-3.737.606m1.565.783L5.133 8.017c-.672 1.343-.857 2.667-.472 3.785.64 1.856 1.927 4.538 4.463 7.074s5.218 3.823 7.074 4.463c1.119.386 2.442.2 3.785-.471l2.073-1.037a.583.583 0 0 0 .16-.924l-2.286-2.39a.556.556 0 0 0-.73-.064c-1.55 1.14-3.735 1.406-5.52.273-.687-.437-1.513-1.014-2.145-1.646-.727-.727-1.39-1.72-1.856-2.482-.925-1.516-.875-3.33-.145-4.79l.307-.613a.58.58 0 0 0-.11-.673L7.07 5.86a.583.583 0 0 0-.934.152" clip-rule="evenodd"/><path fill="#fff" d="M18.125 9.475c-.762-.762-1.689-1.173-2.392-1.073a.583.583 0 1 1-.165-1.154c1.221-.175 2.495.514 3.382 1.402s1.577 2.161 1.402 3.382a.583.583 0 0 1-1.155-.165c.101-.703-.31-1.63-1.072-2.392"/><path fill="#fff" d="M15.032 10.845c1.125-.426 2.15.598 1.723 1.723a.583.583 0 0 0 1.09.414 2.479 2.479 0 0 0-3.227-3.228.583.583 0 1 0 .414 1.091"/></svg>