<svg xmlns="http://www.w3.org/2000/svg" width="42" height="42" fill="none" viewBox="0 0 42 42"><mask id="a" fill="#fff"><path d="M42 21C42 9.402 32.598 0 21 0S0 9.402 0 21s9.402 21 21 21 21-9.402 21-21"/></mask><path fill="#F5F5F5" d="M42 21C42 9.402 32.598 0 21 0S0 9.402 0 21s9.402 21 21 21 21-9.402 21-21"/><path fill="#A8513A" d="M42 0H0zM0 42h42zm42 0V0zM19 0C7.402 0-2 9.402-2 21s9.402 21 21 21h2C10.507 42 2 32.598 2 21S10.507 0 21 0z" mask="url(#a)"/><path fill="#A8513A" fill-rule="evenodd" d="m16.8 21 5.045 5.699L24.9 27l-5-6 5-6-3.055.326z" clip-rule="evenodd"/></svg>