<svg xmlns="http://www.w3.org/2000/svg" width="88" height="73" fill="none" viewBox="0 0 88 73"><path fill="#A8513A" d="M.212 69.837c5.15-6.489 14.111-17.819 20.91-29.252 5.355-9.064 9.27-18.643 8.651-26.78-.515-5.356-2.884-9.888-9.579-9.888-10.094 0-14.729 13.184-18.54 20.291H.521l4.12-20.291h1.236l1.751 2.575c3.193-2.472 7.931-5.047 14.317-5.253C32.348.827 40.28 6.801 40.073 18.131c-.206 10.094-6.695 18.643-12.36 24.926-8.137 9.167-14.832 14.317-18.746 18.849h20.291c4.944 0 7.004-4.532 9.167-8.755h1.133L35.232 72H.212zm46.193-28.016c0-17.613 8.034-40.582 27.295-40.582 2.163.103 4.532.927 6.283 2.266l.31-3.09h1.03l1.853 16.583h-1.133C80.086 11.024 76.79 2.99 72.464 2.99 62.061 2.99 57.22 27.607 56.5 35.229c2.37-5.356 7.931-8.137 13.596-8.137 11.742 0 17.613 9.579 17.613 21.733 0 11.845-7.004 23.999-20.6 23.999-16.17 0-20.703-15.759-20.703-31.003m19.982-11.33c-5.768 0-9.27 7.313-9.99 12.36 0 6.592 1.132 26.986 9.99 28.016C75.863 72 76.893 58.095 76.893 49.649c0-7.828-1.648-19.158-10.506-19.158"/></svg>