<svg xmlns="http://www.w3.org/2000/svg" width="223" height="90" fill="none" viewBox="0 0 223 90"><path fill="#A8513A" d="M98.527 61.649c10.155-15.45-1.471-35.009-19.47-33.866a29.6 29.6 0 0 1 2.102-8.166c11.24.639 20.001 5.497 25.507 15.425 5.268 9.51 4.905 19.198.021 28.832a31 31 0 0 1-8.16-2.226"/><path fill="#A8513A" d="M130.594 6.099c1.609.99 4.641 3.971 5.978 5.913-5.827 8.989-13.996 14.053-24.812 14.396-11.984.376-21.572-6.547-26.111-14.526a31.3 31.3 0 0 1 5.904-5.828c4.22 7.742 10.573 12.205 19.475 12.227 8.901.02 15.292-4.41 19.566-12.182"/><path fill="#A8513A" d="M123.615 61.653a31 31 0 0 1-8.117 2.228c-4.86-9.587-5.25-19.223-.061-28.7 5.472-9.993 14.241-14.902 25.558-15.571a30.6 30.6 0 0 1 2.147 8.147c-8.878-.202-15.908 3.131-20.353 10.84-4.445 7.71-3.812 15.477.826 23.056M92.883 58.576a31.6 31.6 0 0 1-6.363-5.722c2.192-.807 3.656-2.224 4.197-4.461a5.88 5.88 0 0 0-.794-4.686c-1.712-2.709-5.805-3.998-9.3-1.112a29.7 29.7 0 0 1-1.767-8.355c5.288-2.838 13.935-1.613 18.153 5.507 4.281 7.215 1.147 15.503-4.126 18.829"/><path fill="#A8513A" d="M135.608 52.906a32 32 0 0 1-6.298 5.677c-4.781-2.884-8.519-10.881-4.377-18.425 3.973-7.245 12.652-8.896 18.372-5.93a30.6 30.6 0 0 1-1.748 8.417c-1.813-1.583-3.852-2.082-6.1-1.391a5.75 5.75 0 0 0-3.502 2.964c-1.71 3.269-.357 6.521 3.653 8.688M105.182-.002c-.392 2.254.076 4.19 1.654 5.772a6.04 6.04 0 0 0 9.002-.56c1.181-1.505 1.486-3.241 1.158-5.105 1.724.023 6.322 1.516 8.119 2.602-.179 5.913-5.595 13.076-14.291 12.931-8.365-.142-13.575-7.096-13.77-12.986a30.4 30.4 0 0 1 8.128-2.654"/><path fill="#05414B" d="M6.036 71.978V82.02q.002 1.234.54 1.951c.36.478.945.71 1.748.71q1.205 0 1.783-.71c.385-.473.579-1.128.579-1.951V71.978h5.552V82.02q0 2.542-1.053 4.343a6.76 6.76 0 0 1-2.893 2.703 9.1 9.1 0 0 1-4.095.906 8.56 8.56 0 0 1-4.015-.906 6.44 6.44 0 0 1-2.726-2.692Q.484 84.586.483 82.02V71.978z"/><path fill="#05414B" d="M16.704 76.156a7.74 7.74 0 0 1 3.053-3.21 9.2 9.2 0 0 1 4.674-1.145 9.5 9.5 0 0 1 4.133.873 7.64 7.64 0 0 1 2.966 2.455 8.9 8.9 0 0 1 1.521 3.695h-5.88a3.2 3.2 0 0 0-1.143-1.372 3 3 0 0 0-1.696-.492 2.66 2.66 0 0 0-2.225 1.057q-.817 1.057-.817 2.839 0 1.78.817 2.838a2.66 2.66 0 0 0 2.225 1.058 3 3 0 0 0 1.696-.492c.503-.339.9-.814 1.143-1.37h5.88a8.9 8.9 0 0 1-1.52 3.7 7.64 7.64 0 0 1-2.967 2.453 9.5 9.5 0 0 1-4.133.868q-2.69 0-4.674-1.145a7.74 7.74 0 0 1-3.053-3.21 10.9 10.9 0 0 1 0-9.412zM33.564 89.218a2.5 2.5 0 0 1-.879-1.964 2.58 2.58 0 0 1 .879-2q.879-.792 2.338-.793a3.33 3.33 0 0 1 2.312.792 2.58 2.58 0 0 1 .879 2.001 2.51 2.51 0 0 1-.88 1.964c-.645.54-1.47.82-2.311.78q-1.46 0-2.338-.78M53.622 73.312a7.73 7.73 0 0 1 3.242 3.076 9.2 9.2 0 0 1 1.143 4.643 9.06 9.06 0 0 1-1.143 4.62 7.76 7.76 0 0 1-3.242 3.063 10.4 10.4 0 0 1-4.863 1.083h-6.14V72.23h6.14a10.46 10.46 0 0 1 4.863 1.083m-.709 11.979q1.51-1.507 1.507-4.258t-1.507-4.286Q51.404 75.2 48.641 75.2h-2.487v11.602h2.487q2.763 0 4.272-1.511M63.215 75.072v4.405h5.904v2.796h-5.904v4.655h6.66v2.87H59.698V72.2h10.177v2.869zM87.866 72.229l-6.433 17.568h-4.27L70.73 72.23h3.779l4.825 13.956 4.798-13.956zM92.543 75.072v4.405h5.904v2.796h-5.904v4.655h6.66v2.87h-10.18V72.2h10.18v2.869zM104.956 87.004h5.779v2.793h-9.298V72.23h3.519zM115.635 88.815a8.6 8.6 0 0 1-3.266-3.21 9.48 9.48 0 0 1 0-9.26 8.6 8.6 0 0 1 3.266-3.198 9.45 9.45 0 0 1 9.06 0 8.57 8.57 0 0 1 3.242 3.21 9.58 9.58 0 0 1 0 9.26 8.53 8.53 0 0 1-3.254 3.21 9.44 9.44 0 0 1-9.048 0zm7.322-2.706a4.9 4.9 0 0 0 1.889-2.05 6.7 6.7 0 0 0 .666-3.106 6.64 6.64 0 0 0-.68-3.075 4.84 4.84 0 0 0-1.89-2.028 5.44 5.44 0 0 0-2.789-.71 5.5 5.5 0 0 0-2.801.71 4.8 4.8 0 0 0-1.889 2.028 6.64 6.64 0 0 0-.673 3.075 6.7 6.7 0 0 0 .68 3.096 4.9 4.9 0 0 0 1.889 2.05c.853.486 1.821.732 2.801.71a5.35 5.35 0 0 0 2.787-.7zM142.913 80.31a4.9 4.9 0 0 1-2.085 1.986q-1.418.757-3.581.755h-2.94v6.746h-3.519V72.23h6.459a7.8 7.8 0 0 1 3.467.71 4.9 4.9 0 0 1 2.149 1.937 5.69 5.69 0 0 1 .05 5.44zm-3.656-.776q.709-.667.709-1.876 0-2.567-2.865-2.567h-2.789v5.11h2.789q1.45.006 2.156-.667M164.234 72.229v17.568h-3.516V78.37l-4.7 11.427h-2.664l-4.723-11.427v11.427h-3.519V72.23h3.996l5.578 13.062 5.578-13.062zM170.266 75.072v4.405h5.904v2.796h-5.904v4.655h6.658v2.87h-10.177V72.2h10.177v2.869zM194.164 89.797h-3.519l-7.966-12.064v12.064h-3.519V72.201h3.519l7.966 12.082V72.201h3.519zM208.613 72.229v2.838h-4.674v14.725h-3.519v-14.72h-4.673v-2.838zM212.973 89.343a5.43 5.43 0 0 1-2.326-1.812 4.77 4.77 0 0 1-.879-2.794h3.779a2.43 2.43 0 0 0 .767 1.713c.473.419 1.091.63 1.89.63s1.466-.197 1.934-.592a1.93 1.93 0 0 0 .708-1.55 1.79 1.79 0 0 0-.472-1.282 3.3 3.3 0 0 0-1.181-.792 20 20 0 0 0-1.974-.643 21 21 0 0 1-2.775-.994 4.8 4.8 0 0 1-1.835-1.485q-.768-.994-.768-2.654a4.73 4.73 0 0 1 .78-2.718 4.94 4.94 0 0 1 2.187-1.777 8 8 0 0 1 3.216-.615q2.714 0 4.409 1.32 1.696 1.32 1.873 3.688h-3.871a2.009 2.009 0 0 0-.765-1.497 2.88 2.88 0 0 0-1.889-.592 2.44 2.44 0 0 0-1.653.528 1.92 1.92 0 0 0-.614 1.535 1.579 1.579 0 0 0 .472 1.183c.331.326.724.582 1.155.754q.958.383 1.948.667 1.431.403 2.789 1.008c.732.346 1.37.864 1.859 1.51q.78 1.006.779 2.644a4.97 4.97 0 0 1-.729 2.616 5.13 5.13 0 0 1-2.126 1.925 7.3 7.3 0 0 1-3.342.71 8.3 8.3 0 0 1-3.346-.634"/></svg>