<svg xmlns="http://www.w3.org/2000/svg" width="23" height="22" fill="none" viewBox="0 0 23 22"><path stroke="#05414B" stroke-linecap="round" stroke-width="1.5" d="M18.019 10.192v-.728a5 5 0 0 0-4.929-4.928h-.728m9.192 6.364v-.99c0-.845 0-1.267-.031-1.623a8 8 0 0 0-7.255-7.255C13.912 1 13.489 1 12.645 1h-.99M8.433 8.223a2.76 2.76 0 0 0 .578 3.053l2.397 2.397a2.76 2.76 0 0 0 3.053.579 2.76 2.76 0 0 1 3.053.578l1.458 1.458c.07.07.106.106.135.137a2 2 0 0 1 0 2.706c-.029.032-.064.067-.135.137l-.886.887a2.99 2.99 0 0 1-2.76.803 17.91 17.91 0 0 1-13.6-13.6 2.99 2.99 0 0 1 .803-2.76l.887-.886c.07-.07.106-.106.137-.134a2 2 0 0 1 2.706 0c.031.028.067.063.137.134L7.854 5.17a2.76 2.76 0 0 1 .579 3.053Z"/></svg>