<svg xmlns="http://www.w3.org/2000/svg" width="393" height="389" fill="none" viewBox="0 0 393 389"><path stroke="#A8513A" stroke-width="3" d="M76.584 39.243c25.999 46.6 65.007 73.56 119.408 73.69 54.449.13 93.708-26.677 120.035-73.533 4.683 3.138 11.041 8.623 17.29 14.772 6.527 6.422 12.827 13.462 16.872 19.132-35.301 53.813-84.584 84.047-149.769 86.108zm0 0a189 189 0 0 0-33.78 33.366c27.681 47.78 85.49 89.059 157.615 86.803zm32.885 203.732.001.001c25.45 42.846 7.193 92.005-23.86 112.226a191.2 191.2 0 0 1-36.33-32.454c12.66-5.179 21.276-13.961 24.546-27.468a37.3 37.3 0 0 0-5.039-29.744c-10.633-16.789-35.614-24.91-57.306-8.432a179.5 179.5 0 0 1-9.92-47.592c31.694-16.377 82.843-8.81 107.908 33.463Zm172.738 2.425.001-.001c23.617-43.035 74.986-53.111 109.23-35.986a184.7 184.7 0 0 1-9.796 47.884c-11.011-8.846-23.407-11.538-36.966-7.378a36.6 36.6 0 0 0-13.095 7.104 36.7 36.7 0 0 0-9.18 11.72c-5.394 10.313-5.996 20.715-1.988 30.264 3.815 9.089 11.733 17.24 23.282 23.803a193.8 193.8 0 0 1-36.144 32.401c-28.171-17.63-49.949-65.047-25.344-109.811ZM158.728 1.853c-1.815 13.204 1.309 24.75 10.821 34.26l.007.007a38.35 38.35 0 0 0 13.495 8.623 38.4 38.4 0 0 0 31.276-1.941 38.3 38.3 0 0 0 12.321-10.225l.001-.001c7.105-9.022 9.192-19.36 7.646-30.331 5.277.468 13.71 2.543 22.34 5.312 9.215 2.957 18.386 6.618 23.832 9.732-1.582 35.012-33.879 77.052-85.525 76.198-49.63-.839-80.697-41.598-82.403-76.449a184.4 184.4 0 0 1 46.189-15.185Zm-36.544 372.88c60.654-94.534-9.91-213.137-119.49-207.517 1.92-16.027 5.999-31.721 12.125-46.656 67.701 4.115 120.357 33.519 153.537 93.271 31.746 57.212 29.768 115.467.584 173.541a188.5 188.5 0 0 1-46.756-12.639Zm255.732-254.171a184.6 184.6 0 0 1 12.381 46.59c-53.854-.766-96.71 19.843-123.872 66.897-27.16 47.051-23.579 94.502 4.163 140.654a188.3 188.3 0 0 1-46.522 12.667c-29.026-57.769-31.16-115.691.083-172.682 32.964-60.132 85.633-89.827 153.767-94.126Z"/></svg>