<svg xmlns="http://www.w3.org/2000/svg" width="24" height="24" fill="none" viewBox="0 0 24 24"><path fill="#fff" d="M6.167 10.833a1.167 1.167 0 1 0 0-2.333 1.167 1.167 0 0 0 0 2.333M13.167 9.667a1.167 1.167 0 1 1-2.333 0 1.167 1.167 0 0 1 2.333 0M17.834 10.833a1.167 1.167 0 1 0 0-2.333 1.167 1.167 0 0 0 0 2.333M7.334 13.75a1.167 1.167 0 1 1-2.334 0 1.167 1.167 0 0 1 2.334 0M12 14.917a1.167 1.167 0 1 0 0-2.334 1.167 1.167 0 0 0 0 2.334M19 13.75a1.167 1.167 0 1 1-2.333 0 1.167 1.167 0 0 1 2.333 0M6.167 19a1.167 1.167 0 1 0 0-2.333 1.167 1.167 0 0 0 0 2.333M13.167 17.833a1.167 1.167 0 1 1-2.333 0 1.167 1.167 0 0 1 2.333 0M17.834 19a1.167 1.167 0 1 0 0-2.333 1.167 1.167 0 0 0 0 2.333"/><path fill="#fff" fill-rule="evenodd" d="M7.042 1.5a.875.875 0 1 0-1.75 0H5A4.667 4.667 0 0 0 .333 6.167V19A4.667 4.667 0 0 0 5 23.667h14A4.667 4.667 0 0 0 23.667 19V6.167A4.667 4.667 0 0 0 19 1.5h-.291a.875.875 0 0 0-1.75 0zM16.959 5V3.25H7.042V5a.875.875 0 1 1-1.75 0V3.25H5a2.917 2.917 0 0 0-2.916 2.917V19A2.917 2.917 0 0 0 5 21.917h14A2.917 2.917 0 0 0 21.917 19V6.167A2.917 2.917 0 0 0 19 3.25h-.291V5a.875.875 0 0 1-1.75 0" clip-rule="evenodd"/></svg>