<svg xmlns="http://www.w3.org/2000/svg" width="344" height="139" fill="none" viewBox="0 0 344 139"><g clip-path="url(#a)"><path fill="#A8513A" d="M151.923 95.215c15.737-23.86-2.279-54.068-30.169-52.304a45.6 45.6 0 0 1 3.257-12.61c17.416.986 30.993 8.49 39.523 23.822 8.165 14.687 7.601 29.65.033 44.53a48.3 48.3 0 0 1-12.644-3.438"/><path fill="#A8513A" d="M201.613 9.422c2.492 1.53 7.191 6.134 9.263 9.133-9.029 13.882-21.687 21.704-38.448 22.234-18.569.58-33.427-10.112-40.46-22.435a48.3 48.3 0 0 1 9.149-9.002c6.539 11.958 16.384 18.851 30.177 18.884s23.695-6.81 30.319-18.814"/><path fill="#A8513A" d="M190.799 95.223a48.2 48.2 0 0 1-12.578 3.441c-7.531-14.807-8.135-29.69-.095-44.325 8.479-15.435 22.067-23.016 39.604-24.05a47 47 0 0 1 3.327 12.582c-13.757-.31-24.651 4.837-31.539 16.743-6.887 11.906-5.906 23.904 1.281 35.609M143.177 90.47a49 49 0 0 1-9.859-8.837c3.396-1.246 5.665-3.434 6.503-6.89a9.04 9.04 0 0 0-1.229-7.238c-2.654-4.183-8.996-6.174-14.412-1.717a45.7 45.7 0 0 1-2.737-12.903c8.194-4.384 21.591-2.491 28.127 8.505 6.635 11.142 1.779 23.943-6.393 29.08"/><path fill="#A8513A" d="M209.383 81.713a49.6 49.6 0 0 1-9.761 8.768c-7.407-4.453-13.2-16.805-6.781-28.455 6.156-11.19 19.605-13.74 28.468-9.16a47 47 0 0 1-2.708 13c-2.811-2.445-5.969-3.216-9.453-2.15a8.92 8.92 0 0 0-5.427 4.578c-2.649 5.05-.552 10.073 5.662 13.419M162.236 0c-.607 3.482.117 6.47 2.562 8.914a9.37 9.37 0 0 0 7.169 2.685 9.39 9.39 0 0 0 6.781-3.55c1.83-2.324 2.302-5.006 1.794-7.885 2.671.037 9.796 2.342 12.581 4.019-.278 9.133-8.669 20.195-22.144 19.973-12.962-.22-21.035-10.96-21.339-20.057A47.3 47.3 0 0 1 162.236 0"/><path fill="#fff" d="M8.604 111.169v15.508q.001 1.907.838 3.014c.556.738 1.463 1.096 2.708 1.096q1.867 0 2.763-1.096c.596-.73.896-1.742.896-3.014v-15.508h8.604v15.508q0 3.928-1.632 6.708a10.45 10.45 0 0 1-4.483 4.175 14.14 14.14 0 0 1-6.346 1.4 13.3 13.3 0 0 1-6.221-1.4 9.95 9.95 0 0 1-4.223-4.157Q0 130.641 0 126.677v-15.508z"/><path fill="#fff" d="M25.134 117.621a11.96 11.96 0 0 1 4.732-4.957 14.3 14.3 0 0 1 7.242-1.769 14.8 14.8 0 0 1 6.404 1.348 11.84 11.84 0 0 1 4.597 3.793 13.7 13.7 0 0 1 2.356 5.706h-9.112a4.94 4.94 0 0 0-1.771-2.119 4.7 4.7 0 0 0-2.628-.76 4.131 4.131 0 0 0-3.447 1.633q-1.266 1.633-1.266 4.384 0 2.75 1.266 4.384a4.11 4.11 0 0 0 3.447 1.633 4.65 4.65 0 0 0 2.628-.76 4.93 4.93 0 0 0 1.771-2.115h9.112a13.8 13.8 0 0 1-2.356 5.714 11.8 11.8 0 0 1-4.597 3.788 14.7 14.7 0 0 1-6.404 1.341q-4.169 0-7.242-1.768a11.97 11.97 0 0 1-4.732-4.958 16.78 16.78 0 0 1 0-14.536zM51.26 137.794a3.87 3.87 0 0 1-1.361-3.032 3.98 3.98 0 0 1 1.36-3.09q1.362-1.221 3.624-1.224a5.17 5.17 0 0 1 3.583 1.224 3.98 3.98 0 0 1 1.361 3.09 3.87 3.87 0 0 1-1.361 3.032A5.21 5.21 0 0 1 54.883 139q-2.262 0-3.623-1.206M82.34 113.23a11.96 11.96 0 0 1 5.025 4.749 14.15 14.15 0 0 1 1.771 7.172 13.94 13.94 0 0 1-1.77 7.134 12 12 0 0 1-5.025 4.731 16.2 16.2 0 0 1-7.536 1.674H65.29v-27.133h9.515a16.24 16.24 0 0 1 7.535 1.673m-1.097 18.5q2.338-2.326 2.334-6.576-.003-4.248-2.334-6.62-2.34-2.388-6.62-2.389h-3.854v17.92h3.853q4.283 0 6.62-2.335M97.206 115.948v6.802h9.148v4.318h-9.148v7.19h10.319v4.431H91.756v-27.176h15.769v4.431zM135.404 111.557l-9.968 27.133h-6.617l-9.968-27.133h5.855l7.476 21.554 7.437-21.554zM142.65 115.948v6.802h9.149v4.318h-9.149v7.19h10.32v4.431h-15.773v-27.176h15.773v4.431zM161.885 134.375h8.955v4.315h-14.408v-27.133h5.453zM178.433 137.173a13.3 13.3 0 0 1-5.061-4.957 14.59 14.59 0 0 1 0-14.303 13.34 13.34 0 0 1 5.061-4.939 14.69 14.69 0 0 1 14.038 0 13.27 13.27 0 0 1 5.025 4.957 14.77 14.77 0 0 1 0 14.303 13.2 13.2 0 0 1-5.043 4.958 14.67 14.67 0 0 1-14.02 0zm11.345-4.179a7.58 7.58 0 0 0 2.928-3.167 10.4 10.4 0 0 0 1.032-4.797 10.24 10.24 0 0 0-1.054-4.75 7.47 7.47 0 0 0-2.928-3.13 8.44 8.44 0 0 0-4.322-1.096 8.55 8.55 0 0 0-4.34 1.096 7.44 7.44 0 0 0-2.928 3.13 10.24 10.24 0 0 0-1.043 4.75 10.36 10.36 0 0 0 1.054 4.782 7.53 7.53 0 0 0 2.928 3.167 8.4 8.4 0 0 0 4.34 1.096 8.3 8.3 0 0 0 4.318-1.081zM220.702 124.036a7.6 7.6 0 0 1-3.232 3.069q-2.195 1.169-5.547 1.165h-4.557v10.419h-5.452v-27.132h10.009a12.1 12.1 0 0 1 5.372 1.096 7.6 7.6 0 0 1 3.33 2.992 8.76 8.76 0 0 1 1.109 4.191 8.77 8.77 0 0 1-1.032 4.211zm-5.665-1.198q1.098-1.03 1.098-2.897 0-3.964-4.439-3.964h-4.322v7.891h4.322q2.246.01 3.341-1.03M253.74 111.557v27.133h-5.449v-17.649l-7.282 17.649h-4.128l-7.319-17.649v17.649h-5.453v-27.133h6.192l8.644 20.173 8.644-20.173zM263.087 115.948v6.802h9.148v4.318h-9.148v7.19h10.316v4.431h-15.769v-27.176h15.769v4.431zM300.118 138.689h-5.453l-12.344-18.631v18.631h-5.452v-27.176h5.452l12.344 18.661v-18.661h5.453zM322.507 111.557v4.384h-7.242v22.741h-5.453v-22.734h-7.242v-4.384zM329.263 137.988a8.4 8.4 0 0 1-3.605-2.798 7.36 7.36 0 0 1-1.361-4.315h5.855a3.76 3.76 0 0 0 1.19 2.645c.732.647 1.69.972 2.927.972s2.273-.303 2.998-.914a2.962 2.962 0 0 0 1.097-2.392 2.76 2.76 0 0 0-.731-1.981 5.2 5.2 0 0 0-1.83-1.223 31 31 0 0 0-3.06-.994 33 33 0 0 1-4.3-1.534 7.5 7.5 0 0 1-2.843-2.295q-1.19-1.534-1.19-4.099a7.3 7.3 0 0 1 1.208-4.197 7.66 7.66 0 0 1 3.389-2.744 12.4 12.4 0 0 1 4.984-.95q4.205 0 6.833 2.039 2.627 2.038 2.902 5.695h-5.998a3.1 3.1 0 0 0-1.186-2.312 4.48 4.48 0 0 0-2.928-.914 3.8 3.8 0 0 0-2.561.815 2.95 2.95 0 0 0-.952 2.371 2.44 2.44 0 0 0 .732 1.827 5.4 5.4 0 0 0 1.79 1.165q1.483.591 3.019 1.03c1.476.414 2.921.934 4.322 1.557a7.8 7.8 0 0 1 2.88 2.33q1.207 1.556 1.207 4.085a7.66 7.66 0 0 1-1.13 4.04 7.94 7.94 0 0 1-3.294 2.974 11.3 11.3 0 0 1-5.178 1.096 12.9 12.9 0 0 1-5.186-.979"/></g><defs><clipPath id="a"><path fill="#fff" d="M0 0h344v139H0z"/></clipPath></defs></svg>