<svg xmlns="http://www.w3.org/2000/svg" width="29" height="28" fill="none" viewBox="0 0 29 28"><path fill="#fff" fill-rule="evenodd" d="M8.361 8.167a.583.583 0 1 0 0-1.167.583.583 0 0 0 0 1.167m0 1.75a2.333 2.333 0 1 0 0-4.667 2.333 2.333 0 0 0 0 4.667M26.445 19.25a5.25 5.25 0 1 0-10.5 0c.077.773.28 1.51.592 2.198.616 1.362 1.656 2.528 2.984 3.377.64.41 1.397.55 2.12.428a3.05 3.05 0 0 0 1.2-.481c1.893-1.28 3.375-3.25 3.604-5.522m-8.75-.085c.198 1.67 1.192 3.177 2.769 4.186.415.265.967.262 1.397-.029 1.565-1.058 2.64-2.575 2.833-4.159a3.5 3.5 0 0 0-6.998.002" clip-rule="evenodd"/><path fill="#fff" fill-rule="evenodd" d="M21.195 19.833a.583.583 0 1 0 0-1.166.583.583 0 0 0 0 1.166m0 1.75a2.333 2.333 0 1 0 0-4.666 2.333 2.333 0 0 0 0 4.666" clip-rule="evenodd"/><path fill="#fff" d="M9.29 13.463a3.03 3.03 0 0 1-1.763.065 3 3 0 0 1-.248.792c-.221.5-.538 1.015-.894 1.594l-.156.255c-.396.649-.832 1.386-1.078 2.133-.252.768-.336 1.645.094 2.506.771 1.541 2.18 2.086 3.428 2.17 1.208.08 2.405-.254 3.055-.644.442-.265 1.079-.315 1.96-.101.869.211 1.832.645 2.802 1.148.475.246.939.502 1.386.75l.014.007c.447.246.883.487 1.278.687a7.4 7.4 0 0 0 1.13.482c.295.09.813.213 1.288-.024l.055-.03a3 3 0 0 1-2.12-.428c-1.328-.85-2.368-2.015-2.984-3.377-.789-.377-1.622-.718-2.436-.916-1.07-.26-2.257-.309-3.273.3-.322.194-1.16.457-2.039.399-.839-.056-1.568-.386-1.978-1.206-.153-.305-.165-.667.003-1.176.173-.529.503-1.104.909-1.768l.149-.243c.349-.567.734-1.194 1.007-1.81.21-.473.384-1.005.411-1.565"/><path fill="#fff" fill-rule="evenodd" d="M13.611 7.583a5.25 5.25 0 1 0-10.5 0c.232 2.304 1.579 4.297 3.577 5.575.263.17.547.292.84.37a3.03 3.03 0 0 0 2.48-.423c1.893-1.28 3.375-3.25 3.603-5.522m-8.749-.085c.198 1.67 1.192 3.178 2.769 4.186.414.266.966.262 1.397-.028 1.565-1.059 2.64-2.576 2.832-4.16a3.5 3.5 0 0 0-6.998.002" clip-rule="evenodd"/><path fill="#fff" fill-rule="evenodd" d="M8.361 9.917a2.333 2.333 0 1 0 0-4.667 2.333 2.333 0 0 0 0 4.667m0-1.75a.583.583 0 1 0 0-1.167.583.583 0 0 0 0 1.167" clip-rule="evenodd"/></svg>